<svg width="495" height="92" viewBox="0 0 495 92" fill="none" xmlns="http://www.w3.org/2000/svg">
<g clip-path="url(#clip0_6_20)">
<path d="M95.93 26C92.0933 22.1656 87.2059 19.5549 81.8856 18.4978C76.5653 17.4407 71.0511 17.9847 66.04 20.0611C61.0288 22.1375 56.7458 25.653 53.7324 30.1632C50.7189 34.6733 49.1104 39.9757 49.11 45.4C49.1275 50.5312 47.3262 55.5026 44.0258 59.4316C40.7255 63.3605 36.1396 65.9929 31.0824 66.8612C26.0252 67.7296 20.8239 66.7777 16.4019 64.1747C11.98 61.5717 8.62349 57.4859 6.92839 52.6428C5.23329 47.7997 5.30926 42.5125 7.1428 37.7201C8.97635 32.9277 12.4488 28.94 16.9437 26.4651C21.4387 23.9902 26.6652 23.1882 31.6953 24.2015C36.7255 25.2148 41.2339 27.9778 44.42 32C44.657 32.2955 44.9499 32.5414 45.282 32.7236C45.6141 32.9059 45.9788 33.021 46.3553 33.0623C46.7319 33.1036 47.1129 33.0704 47.4766 32.9645C47.8402 32.8586 48.1795 32.682 48.475 32.445C48.7705 32.208 49.0164 31.9151 49.1986 31.583C49.3809 31.2509 49.496 30.8862 49.5373 30.5097C49.5786 30.1331 49.5454 29.7521 49.4395 29.3884C49.3335 29.0247 49.157 28.6855 48.92 28.39C44.8891 23.3058 39.1877 19.8138 32.827 18.5334C26.4664 17.253 19.8579 18.267 14.1738 21.3956C8.4897 24.5242 4.09754 29.565 1.77652 35.6239C-0.544505 41.6827 -0.644347 48.3679 1.4947 54.4934C3.63376 60.6188 7.87341 65.7886 13.4615 69.0855C19.0497 72.3824 25.625 73.5934 32.021 72.5035C38.417 71.4136 44.2202 68.0934 48.4011 63.1319C52.582 58.1703 54.8703 51.8882 54.86 45.4C54.8525 40.2727 56.6607 35.3083 59.9642 31.387C63.2677 27.4658 67.853 24.8409 72.9072 23.9778C77.9613 23.1147 83.1578 24.0691 87.5754 26.6719C91.993 29.2747 95.3463 33.3576 97.0407 38.1968C98.7352 43.0361 98.6614 48.319 96.8323 53.109C95.0033 57.899 91.5372 61.8866 87.0486 64.3649C82.56 66.8432 77.3389 67.652 72.3108 66.648C67.2827 65.644 62.7726 62.8921 59.58 58.88C59.3423 58.5852 59.0489 58.3401 58.7164 58.1587C58.384 57.9772 58.0191 57.8631 57.6426 57.8227C57.266 57.7823 56.8852 57.8165 56.5219 57.9232C56.1586 58.03 55.8198 58.2073 55.525 58.445C55.2302 58.6827 54.9851 58.9761 54.8036 59.3085C54.6222 59.641 54.5081 60.0059 54.4677 60.3824C54.4273 60.7589 54.4614 61.1398 54.5682 61.5031C54.675 61.8664 54.8523 62.2052 55.09 62.5C57.4168 65.4175 60.3144 67.8295 63.6055 69.5885C66.8966 71.3475 70.5121 72.4164 74.2306 72.7299C77.9491 73.0434 81.6925 72.5949 85.2316 71.4118C88.7708 70.2286 92.0314 68.3358 94.8138 65.8491C97.5962 63.3623 99.8419 60.334 101.414 56.9495C102.985 53.5649 103.85 49.8952 103.954 46.1649C104.059 42.4347 103.401 38.7224 102.021 35.2551C100.642 31.7879 98.5688 28.6386 95.93 26V26Z" fill="#32D320"/>
<path d="M52 21.1C49.9126 21.104 47.8709 20.4886 46.1333 19.3317C44.3957 18.1749 43.0404 16.5286 42.2388 14.6012C41.4372 12.6738 41.2255 10.5519 41.6303 8.50409C42.0351 6.45627 43.0383 4.57457 44.5129 3.09712C45.9876 1.61968 47.8674 0.612901 49.9144 0.204203C51.9615 -0.204494 54.0837 0.00325972 56.0127 0.801173C57.9416 1.59909 59.5905 2.95129 60.7506 4.68666C61.9107 6.42203 62.53 8.46256 62.53 10.55C62.5274 13.3438 61.4177 16.0226 59.4441 18C57.4705 19.9774 54.7938 21.0921 52 21.1V21.1ZM52 5.75C51.0506 5.75 50.1226 6.03152 49.3333 6.55895C48.5439 7.08638 47.9287 7.83604 47.5654 8.71312C47.2021 9.59021 47.107 10.5553 47.2922 11.4864C47.4774 12.4175 47.9346 13.2728 48.6059 13.9441C49.2772 14.6154 50.1325 15.0726 51.0636 15.2578C51.9947 15.443 52.9598 15.3479 53.8369 14.9846C54.714 14.6213 55.4636 14.0061 55.9911 13.2167C56.5185 12.4274 56.8 11.4994 56.8 10.55C56.8 9.27696 56.2943 8.05606 55.3941 7.15589C54.4939 6.25571 53.273 5.75 52 5.75V5.75Z" fill="#32D320"/>
<path d="M27.68 35C29.7341 35.002 31.7415 35.6128 33.4486 36.7552C35.1557 37.8976 36.4858 39.5204 37.271 41.4185C38.0561 43.3167 38.2611 45.4049 37.8598 47.4194C37.4586 49.434 36.4693 51.2844 35.0168 52.7368C33.5643 54.1893 31.7139 55.1786 29.6994 55.5799C27.6849 55.9811 25.5966 55.7762 23.6985 54.991C21.8004 54.2059 20.1776 52.8757 19.0352 51.1686C17.8927 49.4615 17.282 47.4541 17.28 45.4C17.2826 42.6426 18.3792 39.9988 20.329 38.049C22.2788 36.0992 24.9225 35.0026 27.68 35V35ZM27.68 29.25C24.4858 29.25 21.3634 30.1972 18.7075 31.9718C16.0517 33.7464 13.9817 36.2686 12.7593 39.2197C11.537 42.1707 11.2171 45.4179 11.8403 48.5507C12.4634 51.6835 14.0016 54.5612 16.2602 56.8198C18.5188 59.0784 21.3965 60.6165 24.5293 61.2397C27.6621 61.8628 30.9093 61.543 33.8603 60.3207C36.8113 59.0983 39.3336 57.0283 41.1082 54.3725C42.8828 51.7166 43.83 48.5942 43.83 45.4C43.83 43.2792 43.4122 41.1791 42.6006 39.2197C41.789 37.2603 40.5994 35.4799 39.0997 33.9802C37.6001 32.4806 35.8197 31.291 33.8603 30.4793C31.9009 29.6677 29.8008 29.25 27.68 29.25V29.25Z" fill="#32D320"/>
<path d="M77 35C79.0537 35.004 81.0601 35.6164 82.7659 36.76C84.4716 37.9037 85.8002 39.5272 86.5839 41.4254C87.3675 43.3237 87.571 45.4117 87.1686 47.4255C86.7663 49.4394 85.7762 51.2889 84.3233 52.7403C82.8704 54.1918 81.02 55.1802 79.0058 55.5806C76.9915 55.981 74.9038 55.7755 73.0062 54.99C71.1087 54.2046 69.4865 52.8744 68.3445 51.1676C67.2025 49.4607 66.592 47.4537 66.59 45.4C66.5926 42.6408 67.6906 39.9956 69.6425 38.0455C71.5945 36.0954 74.2408 35 77 35V35ZM77 29.25C73.805 29.246 70.6806 30.1899 68.0221 31.962C65.3636 33.7342 63.2905 36.2551 62.0651 39.2058C60.8397 42.1565 60.517 45.4043 61.1379 48.5384C61.7588 51.6725 63.2953 54.5521 65.5531 56.8127C67.811 59.0733 70.6886 60.6134 73.8219 61.2382C76.9553 61.863 80.2035 61.5443 83.1557 60.3226C86.1079 59.1008 88.6314 57.0308 90.4068 54.3745C92.1823 51.7182 93.13 48.595 93.13 45.4C93.13 41.1202 91.4312 37.0154 88.4068 33.9873C85.3825 30.9591 81.2798 29.2553 77 29.25V29.25Z" fill="#32D320"/>
<path d="M59.49 87.68H44.49C43.878 87.6726 43.2785 87.5053 42.7511 87.1946C42.2237 86.884 41.7867 86.4409 41.4835 85.9092C41.1803 85.3775 41.0213 84.7758 41.0225 84.1637C41.0236 83.5517 41.1848 82.9505 41.49 82.42L49 69.42C49.3087 68.8886 49.7515 68.4476 50.2841 68.1411C50.8167 67.8345 51.4205 67.6732 52.035 67.6732C52.6495 67.6732 53.2533 67.8345 53.7859 68.1411C54.3185 68.4476 54.7613 68.8886 55.07 69.42L62.58 82.42C62.8852 82.9505 63.0464 83.5517 63.0475 84.1637C63.0486 84.7758 62.8897 85.3775 62.5865 85.9092C62.2832 86.4409 61.8462 86.884 61.3188 87.1946C60.7915 87.5053 60.192 87.6726 59.58 87.68H59.49ZM47.84 82.22H56.11L52 75.06L47.84 82.22Z" fill="#32D320"/>
<path d="M188.84 9.35001V73H174.1V46.92H145.17V73H130.44V9.35001H145.18V34.46H174.1V9.35001H188.84Z" fill="black"/>
<path d="M234.37 61.25C236.426 60.436 238.297 59.2149 239.87 57.66L247.42 65.85C242.813 71.1233 236.083 73.76 227.23 73.76C222.159 73.8617 217.138 72.7545 212.58 70.53C208.512 68.5324 205.104 65.4085 202.76 61.53C200.425 57.6009 199.227 53.1002 199.3 48.53C199.229 43.9667 200.408 39.4708 202.71 35.53C204.942 31.7223 208.186 28.6072 212.08 26.53C216.209 24.3382 220.826 23.227 225.5 23.3C229.927 23.2554 234.298 24.2848 238.24 26.3C242.026 28.2399 245.192 31.2019 247.38 34.85C249.728 38.8593 250.909 43.4451 250.79 48.09L214.59 55.09C215.532 57.4189 217.253 59.3487 219.46 60.55C221.976 61.8342 224.777 62.4603 227.6 62.37C229.906 62.4161 232.201 62.0364 234.37 61.25V61.25ZM216.77 37.55C214.523 39.85 213.34 43.0333 213.22 47.1L237.05 42.46C236.457 40.0173 235.023 37.8613 233 36.37C230.827 34.821 228.208 34.0239 225.54 34.1C223.918 34.0325 222.301 34.3045 220.791 34.8986C219.28 35.4927 217.911 36.3958 216.77 37.55V37.55Z" fill="black"/>
<path d="M309.64 24.09V64.84C309.64 73.8133 307.367 80.48 302.82 84.84C298.273 89.2 291.667 91.3867 283 91.4C278.591 91.4254 274.2 90.8433 269.95 89.67C266.217 88.6932 262.711 86.9946 259.63 84.67L265.27 74.48C267.515 76.2732 270.076 77.6299 272.82 78.48C275.724 79.4403 278.762 79.9331 281.82 79.94C286.553 79.94 290.01 78.85 292.19 76.67C294.37 74.49 295.463 71.1567 295.47 66.67V65C293.632 66.841 291.428 68.2753 289 69.21C286.448 70.1937 283.735 70.6889 281 70.67C274.573 70.67 269.48 68.8367 265.72 65.17C261.96 61.5033 260.08 56 260.08 48.66V24.09H274.27V46.56C274.27 54.5067 277.573 58.48 284.18 58.48C285.703 58.5444 287.222 58.2814 288.635 57.7087C290.048 57.1359 291.322 56.2668 292.37 55.16C294.43 52.9467 295.46 49.6567 295.46 45.29V24.09H309.64Z" fill="black"/>
<path d="M327.47 69.34C324.377 66.4 322.83 62.23 322.83 56.83V5.53H337V56C336.886 57.7398 337.457 59.4552 338.59 60.78C339.18 61.36 339.886 61.8092 340.661 62.0987C341.437 62.3881 342.264 62.5112 343.09 62.46C343.841 62.4583 344.59 62.3677 345.32 62.19C345.937 62.0586 346.532 61.8433 347.09 61.55L347.73 72.55C345.353 73.3389 342.864 73.7374 340.36 73.73C334.86 73.75 330.563 72.2867 327.47 69.34Z" fill="black"/>
<path d="M403.52 24.09V73H390V67.39C386.48 71.6367 381.387 73.76 374.72 73.76C370.354 73.822 366.045 72.7578 362.21 70.67C358.5 68.6299 355.453 65.569 353.43 61.85C351.245 57.7707 350.15 53.1966 350.25 48.57C350.15 43.9434 351.245 39.3693 353.43 35.29C355.454 31.5713 358.501 28.5105 362.21 26.47C366.045 24.3826 370.354 23.3184 374.72 23.38C380.967 23.38 385.85 25.35 389.37 29.29V24.09H403.52ZM386.05 58.43C388.417 55.9767 389.6 52.6867 389.6 48.56C389.6 44.4333 388.417 41.1433 386.05 38.69C383.665 36.3303 380.445 35.0068 377.09 35.0068C373.735 35.0068 370.515 36.3303 368.13 38.69C365.763 41.1433 364.58 44.4333 364.58 48.56C364.58 52.6867 365.763 55.9767 368.13 58.43C370.515 60.7897 373.735 62.1132 377.09 62.1132C380.445 62.1132 383.665 60.7897 386.05 58.43V58.43Z" fill="black"/>
<path d="M494 24.09V51.09C494 58.31 492.03 63.89 488.09 67.83C484.15 71.77 478.54 73.74 471.26 73.74C468.098 73.7975 464.955 73.2476 462 72.12C459.294 71.0234 456.946 69.1952 455.22 66.84C453.506 69.1861 451.177 71.0132 448.49 72.12C445.464 73.279 442.24 73.8361 439 73.76C431.667 73.76 426.057 71.79 422.17 67.85C418.283 63.91 416.343 58.33 416.35 51.11V24.11H430.54V50C430.54 54.0667 431.237 57.0667 432.63 59C434.023 60.9333 436.207 61.89 439.18 61.87C442.213 61.87 444.457 60.9 445.91 58.96C447.363 57.02 448.09 54.0333 448.09 50V24.09H462.28V50C462.28 54 463.007 56.9733 464.46 58.92C465.913 60.8667 468.157 61.8367 471.19 61.83C474.157 61.83 476.34 60.8733 477.74 58.96C479.14 57.0467 479.837 54.0467 479.83 49.96V24.09H494Z" fill="black"/>
</g>
<defs>
<clipPath id="clip0_6_20">
<rect width="494.03" height="91.4" fill="white"/>
</clipPath>
</defs>
</svg>
